<svg width="72" height="72" viewBox="0 0 72 72" fill="none" xmlns="http://www.w3.org/2000/svg">
<path d="M30.0789 7.02046C33.18 3.76693 38.507 3.76543 41.61 7.01722L43.6239 9.1277C44.2792 9.81438 45.2273 10.1705 46.1922 10.0922L49.992 9.78404C54.286 9.43578 58.065 12.4956 58.447 16.6301L58.6022 18.3096C58.6994 19.3621 59.3614 20.2889 60.3472 20.7527L62.9866 21.9943C67.3836 24.0627 68.7551 29.4662 65.845 33.2555L65.1439 34.1685C64.3276 35.2313 64.325 36.6822 65.1372 37.7478L65.9032 38.7526C68.9038 42.689 67.288 48.2925 62.6098 50.1746L59.9931 51.2273C59.0075 51.6238 58.2997 52.4768 58.1153 53.4902L57.3724 57.5742C56.7892 60.7803 53.6708 62.9627 50.3251 62.5064L45.8955 61.9022C44.9383 61.7717 43.9722 62.0742 43.2778 62.722L40.0629 65.7211C37.6342 67.9868 33.7771 67.9868 31.3484 65.7211L28.1335 62.722C27.4391 62.0742 26.473 61.7717 25.5159 61.9022L21.0012 62.518C17.6897 62.9697 14.5941 60.8354 13.9699 57.6704L13.1718 53.6229C12.9838 52.6695 12.3311 51.8615 11.4179 51.4516L9.09845 50.4104C4.86718 48.5111 3.29068 43.4898 5.72017 39.6502L6.9317 37.7354C7.56871 36.7287 7.53842 35.4567 6.85417 34.4792L5.92625 33.1535C3.01222 28.9904 5.05634 23.2983 10.018 21.7594L11.1124 21.42C12.3202 21.0453 13.1739 20.0057 13.2743 18.7873L13.518 15.8295C13.9135 11.0286 18.816 7.8101 23.5996 9.21089L25.1478 9.66424C26.3 10.0016 27.551 9.67272 28.3654 8.81821L30.0789 7.02046Z" fill="url(#paint0_linear_221_5075)"/>
<path d="M30.0789 7.02046C33.18 3.76693 38.507 3.76543 41.61 7.01722L43.6239 9.1277C44.2792 9.81438 45.2273 10.1705 46.1922 10.0922L49.992 9.78404C54.286 9.43578 58.065 12.4956 58.447 16.6301L58.6022 18.3096C58.6994 19.3621 59.3614 20.2889 60.3472 20.7527L62.9866 21.9943C67.3836 24.0627 68.7551 29.4662 65.845 33.2555L65.1439 34.1685C64.3276 35.2313 64.325 36.6822 65.1372 37.7478L65.9032 38.7526C68.9038 42.689 67.288 48.2925 62.6098 50.1746L59.9931 51.2273C59.0075 51.6238 58.2997 52.4768 58.1153 53.4902L57.3724 57.5742C56.7892 60.7803 53.6708 62.9627 50.3251 62.5064L45.8955 61.9022C44.9383 61.7717 43.9722 62.0742 43.2778 62.722L40.0629 65.7211C37.6342 67.9868 33.7771 67.9868 31.3484 65.7211L28.1335 62.722C27.4391 62.0742 26.473 61.7717 25.5159 61.9022L21.0012 62.518C17.6897 62.9697 14.5941 60.8354 13.9699 57.6704L13.1718 53.6229C12.9838 52.6695 12.3311 51.8615 11.4179 51.4516L9.09845 50.4104C4.86718 48.5111 3.29068 43.4898 5.72017 39.6502L6.9317 37.7354C7.56871 36.7287 7.53842 35.4567 6.85417 34.4792L5.92625 33.1535C3.01222 28.9904 5.05634 23.2983 10.018 21.7594L11.1124 21.42C12.3202 21.0453 13.1739 20.0057 13.2743 18.7873L13.518 15.8295C13.9135 11.0286 18.816 7.8101 23.5996 9.21089L25.1478 9.66424C26.3 10.0016 27.551 9.67272 28.3654 8.81821L30.0789 7.02046Z" fill="url(#paint1_radial_221_5075)"/>
<path d="M30.0789 7.02046C33.18 3.76693 38.507 3.76543 41.61 7.01722L43.6239 9.1277C44.2792 9.81438 45.2273 10.1705 46.1922 10.0922L49.992 9.78404C54.286 9.43578 58.065 12.4956 58.447 16.6301L58.6022 18.3096C58.6994 19.3621 59.3614 20.2889 60.3472 20.7527L62.9866 21.9943C67.3836 24.0627 68.7551 29.4662 65.845 33.2555L65.1439 34.1685C64.3276 35.2313 64.325 36.6822 65.1372 37.7478L65.9032 38.7526C68.9038 42.689 67.288 48.2925 62.6098 50.1746L59.9931 51.2273C59.0075 51.6238 58.2997 52.4768 58.1153 53.4902L57.3724 57.5742C56.7892 60.7803 53.6708 62.9627 50.3251 62.5064L45.8955 61.9022C44.9383 61.7717 43.9722 62.0742 43.2778 62.722L40.0629 65.7211C37.6342 67.9868 33.7771 67.9868 31.3484 65.7211L28.1335 62.722C27.4391 62.0742 26.473 61.7717 25.5159 61.9022L21.0012 62.518C17.6897 62.9697 14.5941 60.8354 13.9699 57.6704L13.1718 53.6229C12.9838 52.6695 12.3311 51.8615 11.4179 51.4516L9.09845 50.4104C4.86718 48.5111 3.29068 43.4898 5.72017 39.6502L6.9317 37.7354C7.56871 36.7287 7.53842 35.4567 6.85417 34.4792L5.92625 33.1535C3.01222 28.9904 5.05634 23.2983 10.018 21.7594L11.1124 21.42C12.3202 21.0453 13.1739 20.0057 13.2743 18.7873L13.518 15.8295C13.9135 11.0286 18.816 7.8101 23.5996 9.21089L25.1478 9.66424C26.3 10.0016 27.551 9.67272 28.3654 8.81821L30.0789 7.02046Z" fill="url(#paint2_radial_221_5075)"/>
<path d="M30.0789 7.02046C33.18 3.76693 38.507 3.76543 41.61 7.01722L43.6239 9.1277C44.2792 9.81438 45.2273 10.1705 46.1922 10.0922L49.992 9.78404C54.286 9.43578 58.065 12.4956 58.447 16.6301L58.6022 18.3096C58.6994 19.3621 59.3614 20.2889 60.3472 20.7527L62.9866 21.9943C67.3836 24.0627 68.7551 29.4662 65.845 33.2555L65.1439 34.1685C64.3276 35.2313 64.325 36.6822 65.1372 37.7478L65.9032 38.7526C68.9038 42.689 67.288 48.2925 62.6098 50.1746L59.9931 51.2273C59.0075 51.6238 58.2997 52.4768 58.1153 53.4902L57.3724 57.5742C56.7892 60.7803 53.6708 62.9627 50.3251 62.5064L45.8955 61.9022C44.9383 61.7717 43.9722 62.0742 43.2778 62.722L40.0629 65.7211C37.6342 67.9868 33.7771 67.9868 31.3484 65.7211L28.1335 62.722C27.4391 62.0742 26.473 61.7717 25.5159 61.9022L21.0012 62.518C17.6897 62.9697 14.5941 60.8354 13.9699 57.6704L13.1718 53.6229C12.9838 52.6695 12.3311 51.8615 11.4179 51.4516L9.09845 50.4104C4.86718 48.5111 3.29068 43.4898 5.72017 39.6502L6.9317 37.7354C7.56871 36.7287 7.53842 35.4567 6.85417 34.4792L5.92625 33.1535C3.01222 28.9904 5.05634 23.2983 10.018 21.7594L11.1124 21.42C12.3202 21.0453 13.1739 20.0057 13.2743 18.7873L13.518 15.8295C13.9135 11.0286 18.816 7.8101 23.5996 9.21089L25.1478 9.66424C26.3 10.0016 27.551 9.67272 28.3654 8.81821L30.0789 7.02046Z" fill="url(#paint3_radial_221_5075)"/>
<path d="M30.0789 7.02046C33.18 3.76693 38.507 3.76543 41.61 7.01722L43.6239 9.1277C44.2792 9.81438 45.2273 10.1705 46.1922 10.0922L49.992 9.78404C54.286 9.43578 58.065 12.4956 58.447 16.6301L58.6022 18.3096C58.6994 19.3621 59.3614 20.2889 60.3472 20.7527L62.9866 21.9943C67.3836 24.0627 68.7551 29.4662 65.845 33.2555L65.1439 34.1685C64.3276 35.2313 64.325 36.6822 65.1372 37.7478L65.9032 38.7526C68.9038 42.689 67.288 48.2925 62.6098 50.1746L59.9931 51.2273C59.0075 51.6238 58.2997 52.4768 58.1153 53.4902L57.3724 57.5742C56.7892 60.7803 53.6708 62.9627 50.3251 62.5064L45.8955 61.9022C44.9383 61.7717 43.9722 62.0742 43.2778 62.722L40.0629 65.7211C37.6342 67.9868 33.7771 67.9868 31.3484 65.7211L28.1335 62.722C27.4391 62.0742 26.473 61.7717 25.5159 61.9022L21.0012 62.518C17.6897 62.9697 14.5941 60.8354 13.9699 57.6704L13.1718 53.6229C12.9838 52.6695 12.3311 51.8615 11.4179 51.4516L9.09845 50.4104C4.86718 48.5111 3.29068 43.4898 5.72017 39.6502L6.9317 37.7354C7.56871 36.7287 7.53842 35.4567 6.85417 34.4792L5.92625 33.1535C3.01222 28.9904 5.05634 23.2983 10.018 21.7594L11.1124 21.42C12.3202 21.0453 13.1739 20.0057 13.2743 18.7873L13.518 15.8295C13.9135 11.0286 18.816 7.8101 23.5996 9.21089L25.1478 9.66424C26.3 10.0016 27.551 9.67272 28.3654 8.81821L30.0789 7.02046Z" fill="url(#paint4_radial_221_5075)"/>
<path d="M30.0789 7.02046C33.18 3.76693 38.507 3.76543 41.61 7.01722L43.6239 9.1277C44.2792 9.81438 45.2273 10.1705 46.1922 10.0922L49.992 9.78404C54.286 9.43578 58.065 12.4956 58.447 16.6301L58.6022 18.3096C58.6994 19.3621 59.3614 20.2889 60.3472 20.7527L62.9866 21.9943C67.3836 24.0627 68.7551 29.4662 65.845 33.2555L65.1439 34.1685C64.3276 35.2313 64.325 36.6822 65.1372 37.7478L65.9032 38.7526C68.9038 42.689 67.288 48.2925 62.6098 50.1746L59.9931 51.2273C59.0075 51.6238 58.2997 52.4768 58.1153 53.4902L57.3724 57.5742C56.7892 60.7803 53.6708 62.9627 50.3251 62.5064L45.8955 61.9022C44.9383 61.7717 43.9722 62.0742 43.2778 62.722L40.0629 65.7211C37.6342 67.9868 33.7771 67.9868 31.3484 65.7211L28.1335 62.722C27.4391 62.0742 26.473 61.7717 25.5159 61.9022L21.0012 62.518C17.6897 62.9697 14.5941 60.8354 13.9699 57.6704L13.1718 53.6229C12.9838 52.6695 12.3311 51.8615 11.4179 51.4516L9.09845 50.4104C4.86718 48.5111 3.29068 43.4898 5.72017 39.6502L6.9317 37.7354C7.56871 36.7287 7.53842 35.4567 6.85417 34.4792L5.92625 33.1535C3.01222 28.9904 5.05634 23.2983 10.018 21.7594L11.1124 21.42C12.3202 21.0453 13.1739 20.0057 13.2743 18.7873L13.518 15.8295C13.9135 11.0286 18.816 7.8101 23.5996 9.21089L25.1478 9.66424C26.3 10.0016 27.551 9.67272 28.3654 8.81821L30.0789 7.02046Z" fill="url(#paint5_radial_221_5075)"/>
<path d="M30.0789 7.02046C33.18 3.76693 38.507 3.76543 41.61 7.01722L43.6239 9.1277C44.2792 9.81438 45.2273 10.1705 46.1922 10.0922L49.992 9.78404C54.286 9.43578 58.065 12.4956 58.447 16.6301L58.6022 18.3096C58.6994 19.3621 59.3614 20.2889 60.3472 20.7527L62.9866 21.9943C67.3836 24.0627 68.7551 29.4662 65.845 33.2555L65.1439 34.1685C64.3276 35.2313 64.325 36.6822 65.1372 37.7478L65.9032 38.7526C68.9038 42.689 67.288 48.2925 62.6098 50.1746L59.9931 51.2273C59.0075 51.6238 58.2997 52.4768 58.1153 53.4902L57.3724 57.5742C56.7892 60.7803 53.6708 62.9627 50.3251 62.5064L45.8955 61.9022C44.9383 61.7717 43.9722 62.0742 43.2778 62.722L40.0629 65.7211C37.6342 67.9868 33.7771 67.9868 31.3484 65.7211L28.1335 62.722C27.4391 62.0742 26.473 61.7717 25.5159 61.9022L21.0012 62.518C17.6897 62.9697 14.5941 60.8354 13.9699 57.6704L13.1718 53.6229C12.9838 52.6695 12.3311 51.8615 11.4179 51.4516L9.09845 50.4104C4.86718 48.5111 3.29068 43.4898 5.72017 39.6502L6.9317 37.7354C7.56871 36.7287 7.53842 35.4567 6.85417 34.4792L5.92625 33.1535C3.01222 28.9904 5.05634 23.2983 10.018 21.7594L11.1124 21.42C12.3202 21.0453 13.1739 20.0057 13.2743 18.7873L13.518 15.8295C13.9135 11.0286 18.816 7.8101 23.5996 9.21089L25.1478 9.66424C26.3 10.0016 27.551 9.67272 28.3654 8.81821L30.0789 7.02046Z" fill="url(#paint6_radial_221_5075)"/>
<path d="M30.0789 7.02046C33.18 3.76693 38.507 3.76543 41.61 7.01722L43.6239 9.1277C44.2792 9.81438 45.2273 10.1705 46.1922 10.0922L49.992 9.78404C54.286 9.43578 58.065 12.4956 58.447 16.6301L58.6022 18.3096C58.6994 19.3621 59.3614 20.2889 60.3472 20.7527L62.9866 21.9943C67.3836 24.0627 68.7551 29.4662 65.845 33.2555L65.1439 34.1685C64.3276 35.2313 64.325 36.6822 65.1372 37.7478L65.9032 38.7526C68.9038 42.689 67.288 48.2925 62.6098 50.1746L59.9931 51.2273C59.0075 51.6238 58.2997 52.4768 58.1153 53.4902L57.3724 57.5742C56.7892 60.7803 53.6708 62.9627 50.3251 62.5064L45.8955 61.9022C44.9383 61.7717 43.9722 62.0742 43.2778 62.722L40.0629 65.7211C37.6342 67.9868 33.7771 67.9868 31.3484 65.7211L28.1335 62.722C27.4391 62.0742 26.473 61.7717 25.5159 61.9022L21.0012 62.518C17.6897 62.9697 14.5941 60.8354 13.9699 57.6704L13.1718 53.6229C12.9838 52.6695 12.3311 51.8615 11.4179 51.4516L9.09845 50.4104C4.86718 48.5111 3.29068 43.4898 5.72017 39.6502L6.9317 37.7354C7.56871 36.7287 7.53842 35.4567 6.85417 34.4792L5.92625 33.1535C3.01222 28.9904 5.05634 23.2983 10.018 21.7594L11.1124 21.42C12.3202 21.0453 13.1739 20.0057 13.2743 18.7873L13.518 15.8295C13.9135 11.0286 18.816 7.8101 23.5996 9.21089L25.1478 9.66424C26.3 10.0016 27.551 9.67272 28.3654 8.81821L30.0789 7.02046Z" fill="url(#paint7_radial_221_5075)"/>
<path d="M30.0789 7.02046C33.18 3.76693 38.507 3.76543 41.61 7.01722L43.6239 9.1277C44.2792 9.81438 45.2273 10.1705 46.1922 10.0922L49.992 9.78404C54.286 9.43578 58.065 12.4956 58.447 16.6301L58.6022 18.3096C58.6994 19.3621 59.3614 20.2889 60.3472 20.7527L62.9866 21.9943C67.3836 24.0627 68.7551 29.4662 65.845 33.2555L65.1439 34.1685C64.3276 35.2313 64.325 36.6822 65.1372 37.7478L65.9032 38.7526C68.9038 42.689 67.288 48.2925 62.6098 50.1746L59.9931 51.2273C59.0075 51.6238 58.2997 52.4768 58.1153 53.4902L57.3724 57.5742C56.7892 60.7803 53.6708 62.9627 50.3251 62.5064L45.8955 61.9022C44.9383 61.7717 43.9722 62.0742 43.2778 62.722L40.0629 65.7211C37.6342 67.9868 33.7771 67.9868 31.3484 65.7211L28.1335 62.722C27.4391 62.0742 26.473 61.7717 25.5159 61.9022L21.0012 62.518C17.6897 62.9697 14.5941 60.8354 13.9699 57.6704L13.1718 53.6229C12.9838 52.6695 12.3311 51.8615 11.4179 51.4516L9.09845 50.4104C4.86718 48.5111 3.29068 43.4898 5.72017 39.6502L6.9317 37.7354C7.56871 36.7287 7.53842 35.4567 6.85417 34.4792L5.92625 33.1535C3.01222 28.9904 5.05634 23.2983 10.018 21.7594L11.1124 21.42C12.3202 21.0453 13.1739 20.0057 13.2743 18.7873L13.518 15.8295C13.9135 11.0286 18.816 7.8101 23.5996 9.21089L25.1478 9.66424C26.3 10.0016 27.551 9.67272 28.3654 8.81821L30.0789 7.02046Z" fill="url(#paint8_radial_221_5075)"/>
<g filter="url(#filter0_d_221_5075)">
<path d="M35.948 59.9743C49.7682 59.9743 60.9717 49.1826 60.9717 35.8703C60.9717 22.558 49.7682 11.7663 35.948 11.7663C22.1278 11.7663 10.9243 22.558 10.9243 35.8703C10.9243 49.1826 22.1278 59.9743 35.948 59.9743Z" fill="url(#paint9_radial_221_5075)"/>
</g>
<path d="M29.7076 30.8394C29.7076 29.7235 30.6122 28.8189 31.7281 28.8189C32.8439 28.8189 33.7485 29.7235 33.7485 30.8394V41.3423C33.7485 42.8003 33.4242 44.0284 32.7754 45.0264C32.1357 46.0245 31.2483 46.7752 30.113 47.2785C28.9868 47.7819 27.6894 48.0336 26.2208 48.0336C24.7522 48.0336 23.4457 47.7819 22.3015 47.2785C21.1663 46.7752 20.2743 46.0245 19.6256 45.0264C18.9859 44.0284 18.666 42.8003 18.666 41.3423V30.8461C18.666 29.7265 19.5736 28.8189 20.6932 28.8189C21.8128 28.8189 22.7204 29.7265 22.7204 30.8461V41.3423C22.7204 42.1928 22.8601 42.8871 23.1394 43.4252C23.4187 43.9633 23.8197 44.3581 24.3422 44.6098C24.8738 44.8615 25.5 44.9874 26.2208 44.9874C26.9596 44.9874 27.5858 44.8615 28.0993 44.6098C28.6219 44.3581 29.0183 43.9633 29.2886 43.4252C29.5679 42.8871 29.7076 42.1928 29.7076 41.3423V30.8394Z" fill="#E84500"/>
<path d="M44.3538 43.2597L48.3628 30.2899C48.6331 29.4153 49.4417 28.8189 50.3572 28.8189C51.8041 28.8189 52.8122 30.2553 52.3203 31.616L47.2623 45.6076C46.7989 46.8896 45.542 47.7095 44.1819 47.617L44.3538 43.2597ZM38.3779 28.8189C39.2894 28.8189 40.0944 29.4132 40.3629 30.2842L44.3538 43.2597L44.1819 47.617C43.0332 47.7092 41.9652 47.0203 41.5755 45.9359L36.4232 31.5985C35.9369 30.2451 36.9398 28.8189 38.3779 28.8189Z" fill="#E84500"/>
<defs>
<filter id="filter0_d_221_5075" x="9.12432" y="11.7663" width="51.8474" height="50.008" filterUnits="userSpaceOnUse" color-interpolation-filters="sRGB">
<feFlood flood-opacity="0" result="BackgroundImageFix"/>
<feColorMatrix in="SourceAlpha" type="matrix" values="0 0 0 0 0 0 0 0 0 0 0 0 0 0 0 0 0 0 127 0" result="hardAlpha"/>
<feOffset dx="-0.9" dy="0.9"/>
<feGaussianBlur stdDeviation="0.45"/>
<feComposite in2="hardAlpha" operator="out"/>
<feColorMatrix type="matrix" values="0 0 0 0 0.921569 0 0 0 0 0.47451 0 0 0 0 0.133333 0 0 0 1 0"/>
<feBlend mode="normal" in2="BackgroundImageFix" result="effect1_dropShadow_221_5075"/>
<feBlend mode="normal" in="SourceGraphic" in2="effect1_dropShadow_221_5075" result="shape"/>
</filter>
<linearGradient id="paint0_linear_221_5075" x1="55.4328" y1="14.9507" x2="21.3213" y2="60.133" gradientUnits="userSpaceOnUse">
<stop stop-color="#FF8E28"/>
<stop offset="1" stop-color="#E46E2D"/>
</linearGradient>
<radialGradient id="paint1_radial_221_5075" cx="0" cy="0" r="1" gradientUnits="userSpaceOnUse" gradientTransform="translate(42.0176 7.25579) rotate(139.219) scale(8.65916 7.60343)">
<stop offset="0.300161" stop-color="#FFA13A"/>
<stop offset="1" stop-color="#FFA13A" stop-opacity="0"/>
</radialGradient>
<radialGradient id="paint2_radial_221_5075" cx="0" cy="0" r="1" gradientUnits="userSpaceOnUse" gradientTransform="translate(19.1178 4.57935) rotate(67.0502) scale(13.5528 12.2779)">
<stop offset="0.300161" stop-color="#FF942A"/>
<stop offset="1" stop-color="#FF942A" stop-opacity="0"/>
</radialGradient>
<radialGradient id="paint3_radial_221_5075" cx="0" cy="0" r="1" gradientUnits="userSpaceOnUse" gradientTransform="translate(56.697 17.1537) rotate(-165.281) scale(5.56506 7.45961)">
<stop offset="0.300161" stop-color="#FFA13D"/>
<stop offset="1" stop-color="#FFA13D" stop-opacity="0"/>
</radialGradient>
<radialGradient id="paint4_radial_221_5075" cx="0" cy="0" r="1" gradientUnits="userSpaceOnUse" gradientTransform="translate(67.9512 24.9777) rotate(155.026) scale(9.824 7.08595)">
<stop offset="0.300161" stop-color="#FFA13D"/>
<stop offset="1" stop-color="#FFA13D" stop-opacity="0"/>
</radialGradient>
<radialGradient id="paint5_radial_221_5075" cx="0" cy="0" r="1" gradientUnits="userSpaceOnUse" gradientTransform="translate(70.1042 41.0971) rotate(-173.621) scale(11.0289 5.99248)">
<stop offset="0.300161" stop-color="#FFA13D"/>
<stop offset="1" stop-color="#FFA13D" stop-opacity="0"/>
</radialGradient>
<radialGradient id="paint6_radial_221_5075" cx="0" cy="0" r="1" gradientUnits="userSpaceOnUse" gradientTransform="translate(60.22 53.4459) rotate(-42.8928) scale(9.83334 9.45384)">
<stop stop-color="#E0762A"/>
<stop offset="1" stop-color="#E0762A" stop-opacity="0"/>
</radialGradient>
<radialGradient id="paint7_radial_221_5075" cx="0" cy="0" r="1" gradientUnits="userSpaceOnUse" gradientTransform="translate(13.8332 51.1836) rotate(-128.79) scale(7.49822 7.28692)">
<stop stop-color="#E0762A"/>
<stop offset="1" stop-color="#E0762A" stop-opacity="0"/>
</radialGradient>
<radialGradient id="paint8_radial_221_5075" cx="0" cy="0" r="1" gradientUnits="userSpaceOnUse" gradientTransform="translate(3.36193 26.2032) rotate(24.4592) scale(7.74079 9.13213)">
<stop stop-color="#F0851D"/>
<stop offset="1" stop-color="#F0851D" stop-opacity="0"/>
</radialGradient>
<radialGradient id="paint9_radial_221_5075" cx="0" cy="0" r="1" gradientUnits="userSpaceOnUse" gradientTransform="translate(50.1486 21.9059) rotate(118.632) scale(43.3724 63.6735)">
<stop offset="0.203962" stop-color="#FFD83E"/>
<stop offset="1" stop-color="#DCA21C"/>
<stop offset="1" stop-color="#D89A29"/>
</radialGradient>
</defs>
</svg>
