<svg width="72" height="72" viewBox="0 0 72 72" fill="none" xmlns="http://www.w3.org/2000/svg">
<g filter="url(#filter0_i_221_5139)">
<path fill-rule="evenodd" clip-rule="evenodd" d="M37.4171 20.5872C36.4313 20.751 35.4444 20.9558 34.458 21.2027C15.1782 26.028 5.27925 43.5092 7.30064 63.4877C7.40083 64.478 8.2471 65.2149 9.24239 65.2149C10.4647 65.2149 11.3939 64.1204 11.2686 62.9046C9.31014 43.8951 20.5079 26.0563 37.4171 20.5872Z" fill="#E16318"/>
<path fill-rule="evenodd" clip-rule="evenodd" d="M37.4171 20.5872C36.4313 20.751 35.4444 20.9558 34.458 21.2027C15.1782 26.028 5.27925 43.5092 7.30064 63.4877C7.40083 64.478 8.2471 65.2149 9.24239 65.2149C10.4647 65.2149 11.3939 64.1204 11.2686 62.9046C9.31014 43.8951 20.5079 26.0563 37.4171 20.5872Z" fill="url(#paint0_linear_221_5139)" fill-opacity="0.3"/>
</g>
<path d="M6.284 29.9627C8.69669 17.5418 19.8375 8.75785 32.4786 9.30974L44.7645 9.84612C51.6621 10.1473 58.5583 9.21862 65.1306 7.10363L66.1203 6.78516L63.3554 28.7867C61.4226 44.1664 48.3452 55.7033 32.8445 55.7033H27.5057C13.9124 55.7033 3.69204 43.3067 6.284 29.9627Z" fill="url(#paint1_linear_221_5139)"/>
<g filter="url(#filter1_di_221_5139)">
<path fill-rule="evenodd" clip-rule="evenodd" d="M32.4786 9.30913C19.8375 8.75724 8.69669 17.5412 6.284 29.9621C4.85754 37.3058 7.31158 44.3626 12.0727 49.224C15.3091 29.7518 33.0664 23.4219 47.4145 18.3073C56.6314 15.0218 64.4415 12.2378 66.092 6.79365L65.1306 7.10302C58.5583 9.21801 51.6621 10.1466 44.7645 9.84551L32.4786 9.30913ZM66.092 6.79365C66.0961 6.83216 66.1006 6.87048 66.1046 6.90892L66.1203 6.78455L66.092 6.79365Z" fill="#E16318"/>
</g>
<defs>
<filter id="filter0_i_221_5139" x="7.04199" y="17.5872" width="30.375" height="47.6277" filterUnits="userSpaceOnUse" color-interpolation-filters="sRGB">
<feFlood flood-opacity="0" result="BackgroundImageFix"/>
<feBlend mode="normal" in="SourceGraphic" in2="BackgroundImageFix" result="shape"/>
<feColorMatrix in="SourceAlpha" type="matrix" values="0 0 0 0 0 0 0 0 0 0 0 0 0 0 0 0 0 0 127 0" result="hardAlpha"/>
<feOffset dy="-3"/>
<feGaussianBlur stdDeviation="1.5"/>
<feComposite in2="hardAlpha" operator="arithmetic" k2="-1" k3="1"/>
<feColorMatrix type="matrix" values="0 0 0 0 1 0 0 0 0 1 0 0 0 0 1 0 0 0 0.2 0"/>
<feBlend mode="normal" in2="shape" result="effect1_innerShadow_221_5139"/>
</filter>
<filter id="filter1_di_221_5139" x="1.38037" y="3.18455" width="69.2397" height="51.4395" filterUnits="userSpaceOnUse" color-interpolation-filters="sRGB">
<feFlood flood-opacity="0" result="BackgroundImageFix"/>
<feColorMatrix in="SourceAlpha" type="matrix" values="0 0 0 0 0 0 0 0 0 0 0 0 0 0 0 0 0 0 127 0" result="hardAlpha"/>
<feOffset dy="0.9"/>
<feGaussianBlur stdDeviation="2.25"/>
<feComposite in2="hardAlpha" operator="out"/>
<feColorMatrix type="matrix" values="0 0 0 0 0.366667 0 0 0 0 0.1496 0 0 0 0 0.0275 0 0 0 0.1 0"/>
<feBlend mode="normal" in2="BackgroundImageFix" result="effect1_dropShadow_221_5139"/>
<feBlend mode="normal" in="SourceGraphic" in2="effect1_dropShadow_221_5139" result="shape"/>
<feColorMatrix in="SourceAlpha" type="matrix" values="0 0 0 0 0 0 0 0 0 0 0 0 0 0 0 0 0 0 127 0" result="hardAlpha"/>
<feOffset dy="-2.4"/>
<feGaussianBlur stdDeviation="1.5"/>
<feComposite in2="hardAlpha" operator="arithmetic" k2="-1" k3="1"/>
<feColorMatrix type="matrix" values="0 0 0 0 1 0 0 0 0 1 0 0 0 0 1 0 0 0 0.3 0"/>
<feBlend mode="normal" in2="shape" result="effect2_innerShadow_221_5139"/>
</filter>
<linearGradient id="paint0_linear_221_5139" x1="9.81068" y1="47.7852" x2="9.81068" y2="64.7451" gradientUnits="userSpaceOnUse">
<stop stop-color="white"/>
<stop offset="1" stop-color="white" stop-opacity="0"/>
</linearGradient>
<linearGradient id="paint1_linear_221_5139" x1="36.0003" y1="17.5999" x2="47.1244" y2="55.2857" gradientUnits="userSpaceOnUse">
<stop offset="0.105928" stop-color="#E16318"/>
<stop offset="0.752178" stop-color="#C14B08"/>
<stop offset="0.752278" stop-color="#BD4705"/>
</linearGradient>
</defs>
</svg>
